HIERARCHY
ROOT Hips
{
  OFFSET 0.382225 96.6805 0.598322
  CHANNELS 6 Xposition Yposition Zposition Zrotation Xrotation Yrotation
  JOINT Spine
  {
    OFFSET 10.8089 -0.851416 0
    CHANNELS 3 Zrotation Xrotation Yrotation
    JOINT Spine1
    {
      OFFSET 18.8753 3.80116 0
      CHANNELS 3 Zrotation Xrotation Yrotation
      JOINT Spine2
      {
        OFFSET 13.4073 0.420477 0
        CHANNELS 3 Zrotation Xrotation Yrotation
        JOINT LeftShoulder
        {
          OFFSET 11.8837 -2.73209 -3.78198
          CHANNELS 3 Zrotation Xrotation Yrotation
          JOINT LeftArm
          {
            OFFSET 15.7849 0 -2.35849e-005
            CHANNELS 3 Zrotation Xrotation Yrotation
            JOINT LeftForeArm
            {
              OFFSET 30.3399 0 0
              CHANNELS 3 Zrotation Xrotation Yrotation
              JOINT LeftHand
              {
                OFFSET 26.9751 0 2.45913e-005
                CHANNELS 3 Zrotation Xrotation Yrotation
                End Site
                {
                  OFFSET 8 0 0
                }
              }
            }
          }
        }
        JOINT RightShoulder
        {
          OFFSET 11.8838 -2.7321 3.782
          CHANNELS 3 Zrotation Xrotation Yrotation
          JOINT RightArm
          {
            OFFSET -15.7848 0 -1.07056e-005
            CHANNELS 3 Zrotation Xrotation Yrotation
            JOINT RightForeArm
            {
              OFFSET -30.34 1.02096e-005 -2.53607e-005
              CHANNELS 3 Zrotation Xrotation Yrotation
              JOINT RightHand
              {
                OFFSET -26.9752 2.07668e-005 0
                CHANNELS 3 Zrotation Xrotation Yrotation
                End Site
                {
                  OFFSET -8 0 0
                }
              }
            }
          }
        }
        JOINT Neck
        {
          OFFSET 16.5588 -0.355318 0
          CHANNELS 3 Zrotation Xrotation Yrotation
          JOINT Head
          {
            OFFSET 9.28361 0.364157 0
            CHANNELS 3 Zrotation Xrotation Yrotation
            End Site
            {
              OFFSET 0 0 0
            }
          }
        }
      }
    }
  }
  JOINT LeftUpLeg
  {
    OFFSET -1.44883 -0.531424 -9.00581
    CHANNELS 3 Zrotation Xrotation Yrotation
    JOINT LeftLeg
    {
      OFFSET -42.572 0.0788889 -0.011964
      CHANNELS 3 Zrotation Xrotation Yrotation
      JOINT LeftFoot
      {
        OFFSET -40.1967 0 0
        CHANNELS 3 Zrotation Xrotation Yrotation
				JOINT LeftToe
        {
          OFFSET -10.4538 -16.5779 0.0801563
          CHANNELS 3 Zrotation Xrotation Yrotation
          End Site
          {
            OFFSET -1.0 -1.0 0.0
          }
        }
      }
    }
  }
  JOINT RightUpLeg
  {
    OFFSET -1.44865 -0.531427 9.0058
    CHANNELS 3 Zrotation Xrotation Yrotation
    JOINT RightLeg
    {
      OFFSET 42.5723 -3.24776e-005 0
      CHANNELS 3 Zrotation Xrotation Yrotation
      JOINT RightFoot
      {
        OFFSET 40.1968 0 -1.14003e-005
        CHANNELS 3 Zrotation Xrotation Yrotation
				JOINT RightToe
        {
          OFFSET 10.4538 16.5778 -0.0801573
          CHANNELS 3 Zrotation Xrotation Yrotation
          End Site
          {
            OFFSET -1.0 -1.0 0.0
          }
        }
      }
    }
  }
}
MOTION
Frames:	6
Frame Time:	0.0333333
-205.549 96.6989 1.51514 -75.474 -85.7419 -165.477 -6.49753 -0.564614 1.01202 15.6799 -0.0810744 -0.154673 2.7794 1.93418e-006 1.65929e-005 -2.917 19.2356 84.2557 -14.284 -5.16904 -2.3414 2.23447 -12.648 9.13444 -23.5772 -68.499 -34.5052 -178.975 21.5197 78.8505 -28.2008 -17.6518 1.26323 0.000245196 1.31316 0.203557 -120.131 -83.5101 -118.963 -23.508 4.63459e-006 -5.90926e-006 13.1329 -3.14148 2.30518 1.14063 12.3329 0.510627 -6.14687 -5.7181 1.96575 5.45801 2.59179 -3.5522 -90 0 0 -177.637 12.4887 -2.61117 -7.09106 -5.74724 1.86214 5.20658 0.779327 -0.0103312 -90 0 0
-205.563 96.6995 1.56337 -74.4966 -85.765 -164.479 -6.40546 -0.697835 0.98698 15.6826 -0.0812095 -0.154917 2.7794 1.93418e-006 1.65929e-005 -2.90129 19.1878 84.1889 -14.2481 -5.10037 -2.39179 2.20621 -12.43 9.15776 -23.5119 -68.5719 -34.5405 -179.015 21.5554 78.9351 -28.2232 -17.5723 1.10123 -0.000257918 1.48319 0.207699 -121.22 -83.6056 -120.057 -23.508 4.63459e-006 -5.90926e-006 13.2636 -4.79182 2.80654 1.03861 12.4729 0.468467 -5.95414 -5.72075 1.99757 5.42866 2.41552 -3.45345 -90 0 0 -177.592 12.5197 -2.58899 -7.12522 -5.74664 1.85674 5.22786 0.781235 0.025393 -90 0 0
-205.582 96.698 1.61295 -74.0808 -85.7714 -164.059 -6.3497 -0.811536 1.00096 15.6872 -0.0818072 -0.154938 2.7794 1.93418e-006 1.65929e-005 -2.88279 19.0993 84.1203 -14.1465 -4.91866 -2.44253 2.21864 -12.5192 9.14831 -23.5624 -68.561 -34.6057 -179.011 21.5616 78.923 -28.1505 -17.4287 1.09745 -0.000206966 1.48315 0.209593 -121.189 -83.5381 -119.989 -23.508 4.63459e-006 -5.90926e-006 13.4372 -6.72125 3.34896 1.16451 12.4082 0.458851 -6.07386 -5.72188 1.97089 5.45442 2.4654 -3.4472 -90 0 0 -177.571 12.5151 -2.5734 -7.19469 -5.74632 1.84603 5.29087 0.787781 -0.00720283 -90 0 0
-205.61 96.6957 1.6424 -74.1912 -85.7651 -164.185 -6.35535 -0.929742 1.06316 15.6941 -0.0825121 -0.15463 2.7794 1.93418e-006 1.65929e-005 -2.86733 19.0286 84.0589 -14.0986 -4.83832 -2.54195 2.21678 -12.502 9.15005 -23.4821 -68.6043 -34.4783 -179.022 21.5527 78.9503 -28.1245 -17.3846 1.03153 -0.000151916 1.48316 0.21129 -121.578 -83.7077 -120.376 -23.508 4.63459e-006 -5.90926e-006 13.6767 -8.49203 3.81576 1.06721 12.3302 0.463739 -5.98063 -5.72256 1.98732 5.45469 2.57148 -3.44117 -90 0 0 -177.564 12.4773 -2.57035 -7.26172 -5.74607 1.8353 5.34073 0.813171 -0.0217765 -90 0 0
-205.644 96.6938 1.65976 -74.0145 -85.7152 -164.008 -6.32517 -1.02684 1.10923 15.6981 -0.0833109 -0.1541 2.7794 1.93418e-006 1.65929e-005 -2.85945 18.9593 84.0341 -14.0531 -4.81982 -2.65597 2.22206 -12.5381 9.14631 -23.4982 -68.551 -34.5116 -179.028 21.5423 78.9672 -28.0915 -17.3664 0.972592 0.000654024 1.28211 0.21278 -121.765 -83.9529 -120.665 -23.508 4.63459e-006 -5.90926e-006 13.8805 -10.0406 4.22617 0.932097 12.4817 0.432098 -5.81426 -5.72291 2.01862 5.44629 2.4622 -3.35767 -90 0 0 -177.532 12.4109 -2.54433 -7.30826 -5.74588 1.82832 5.37776 0.837738 -0.039845 -90 0 0
-205.675 96.6913 1.69145 -74.1576 -85.6061 -164.138 -6.26511 -1.0944 1.12894 15.6847 -0.0841902 -0.153459 2.7794 1.93418e-006 1.65929e-005 -2.84993 18.9203 83.9965 -13.9975 -4.67597 -2.71996 2.20186 -12.384 9.16269 -23.7334 -68.7502 -34.6999 -179.009 21.5191 78.9294 -28.1909 -17.274 0.945452 -2.99671e-005 1.4831 0.214124 -121.587 -83.9757 -120.337 -23.508 4.63459e-006 -5.90926e-006 14.0361 -11.1854 4.52071 0.906892 12.5952 0.383459 -5.78667 -5.72309 2.02352 5.4671 2.42235 -3.25366 -90 0 0 -177.537 12.3326 -2.511 -7.29509 -5.74571 1.83084 5.3931 0.796157 -0.0554405 -90 0 0
